<svg width="559" height="379" viewBox="0 0 559 379" fill="none" xmlns="http://www.w3.org/2000/svg">
<g clip-path="url(#clip0_310_28)">
<path d="M53.9599 367.09C55.3699 349.78 56.5599 335.96 57.3999 326.35C58.0699 318.68 58.3099 316.25 59.9199 297.92C60.5199 291.12 61.0899 284.31 61.7499 277.51C62.1299 273.69 62.0099 274.04 62.1499 272.44C62.3399 270.44 62.6999 266.3 63.4199 258.02C63.6699 255.14 63.7899 253.39 62.6899 251.73C61.8248 250.554 60.6367 249.654 59.2699 249.14C56.8599 248.01 55.1199 248.27 50.8399 248.14C46.1699 248.03 43.8399 247.97 42.6999 247.28C40.5299 245.96 39.8799 243.21 38.5699 237.71C37.5496 233.117 37.1261 228.411 37.3099 223.71V223.49C37.4599 216.87 32.2299 211.71 29.6899 209.28C29.6899 209.28 14.0899 194.28 4.97994 183.82C3.11994 181.68 1.02994 179.13 0.249939 175.38C-0.320061 172.62 0.349939 171.82 0.249939 165.31C0.169939 159.87 -0.310061 159.63 0.249939 157.95C1.79994 153.33 6.77994 151.18 8.07994 150.61C10.6499 149.5 13.4399 149.38 18.9099 149.2C26.9099 148.93 30.9099 148.8 31.2899 148.8C38.8263 148.65 46.3482 148.076 53.8199 147.08C62.4199 145.97 66.0799 144.65 78.4699 141.57C95.9099 137.25 104.66 135.22 109.58 134.71C121.97 133.45 126.2 135.55 144.97 137.28C169.6 139.53 169.55 136.14 184.41 138.42C194.81 140.02 191.16 140.78 220.41 148.17C220.41 148.17 231.87 151.06 258.82 152.41C263.23 152.63 266.98 152.72 269.59 150.23C275.87 144.23 270.02 128.66 267.53 122.03C262.24 107.93 255.79 103.78 250.45 89.12C248.839 84.3333 247.805 79.3716 247.37 74.34C246.92 69.47 246.99 67.14 247.83 64.83C248.95 61.76 250.76 60.03 253.56 57.26C257.33 53.53 260.91 49.62 264.68 45.91C269.651 40.8409 274.939 36.0914 280.51 31.69C282.246 30.2755 284.225 29.1879 286.35 28.48C288.6 27.77 289.96 27.87 294.26 27.57C296.94 27.4574 299.611 27.187 302.26 26.76C306.72 25.85 309.12 23.71 313.04 21.03C317.767 17.8988 322.751 15.1757 327.94 12.89C334.25 10.17 339.87 9.24998 351.1 7.38998C356.36 6.50998 360.76 5.96997 363.86 5.62997C365.14 4.20997 368.76 0.489987 372.86 0.0799869C374.388 -0.0344748 375.922 -0.0344748 377.45 0.0799869C377.76 0.0799869 379.06 0.18998 381.04 0.50998C383.54 0.90998 385.34 1.37998 385.86 1.50998C391.72 2.93998 395.48 -0.210019 400.61 1.58998C403.025 2.5197 405.112 4.14059 406.61 6.24999C409.23 9.58999 408.82 11.91 410.61 21.46C412.4 31.01 413.37 31.82 413.52 36.98C413.59 39.6 413.72 42.22 413.75 44.85C413.78 47.48 413.59 48.9 414.05 50.85C414.515 52.7496 415.348 54.5398 416.5 56.12C421.122 58.0737 425.615 60.3217 429.95 62.85C433.19 64.73 434.6 65.31 435.76 66.98C437.48 69.45 437.68 72.3 438.05 77.75C438.202 79.7094 438.256 81.6752 438.21 83.64C438.08 88.73 437.34 91.04 438.74 94.11C439.149 94.9431 439.634 95.7365 440.19 96.48C441.644 98.6049 443.368 100.531 445.32 102.21C450.02 106.31 453.83 111.32 458.16 115.82C461.92 119.73 467.26 125.46 473.67 133.01L489.22 133.44C489.898 133.461 490.56 133.658 491.14 134.01C495.76 137.01 499.46 139.43 501.88 141.01C509.15 145.84 510.98 147.19 514.35 148.37C517.9 149.61 520.59 149.71 525.95 149.95C528.95 150.09 531.52 150.03 545.06 149.72C549.06 149.63 551.06 149.61 553.24 150.95C556.7 153.1 557.87 157.18 558.24 158.66C558.57 159.81 558.63 160.49 558.62 167.3C558.62 175.43 558.51 176.91 557.85 179.07C557.264 180.937 556.469 182.731 555.48 184.42C554.004 187.094 552.181 189.562 550.06 191.76C550.06 203 550.083 214.237 550.13 225.47C547.13 227.47 540.86 231.72 536.22 234.47C533.15 236.3 531.61 237.22 531.22 237.47C528.03 239.15 527.42 239.11 526.63 240.14C525.37 241.79 525.35 243.97 525.33 246.87C525.33 249.03 525.61 249.79 525.1 251.27C524.613 252.444 523.914 253.518 523.04 254.44C520.7 257.5 519.53 259.04 519.52 260.7C519.52 263.12 521.84 263.57 523.88 267.81C524.04 268.27 524.29 268.98 524.55 269.81C525.868 274.353 526.392 279.089 526.1 283.81C525.81 290.23 526.48 296.65 526.63 303.07C526.77 309.07 526.72 315.07 527.01 321.07C527.55 332.26 526.68 334.48 526.32 336.07C525.302 341.332 523.107 346.296 519.9 350.59C515.917 355.979 510.4 360.04 504.07 362.24C501.34 363.13 498.24 363.37 492.07 363.84C485.25 364.36 483.48 364.06 472.93 364.3C464.19 364.5 463.29 364.75 455.39 364.85C449.68 364.93 445.02 364.85 441.97 364.8V326.12L400.58 299.87L399.21 363.73H311.27C311.62 347.95 311.88 329.46 311.88 308.73C311.88 295 311.78 287.61 306.53 282.43C296.18 272.21 274.67 279.43 270.23 280.98L272.27 366.02L228.47 367.09L225.72 326.58L219.4 366.34L197.73 365.65L192.53 378.45C181.28 378.64 171.78 378.57 164.59 378.45C157.4 378.33 149.36 377.86 133.45 376.92C122.9 376.3 120.45 376.05 117.13 374.59C113.81 373.13 111.19 371.16 106.93 371.27C103.37 371.35 102.55 372.95 99.3599 372.41C96.3599 371.91 95.7499 370.33 91.7899 369.09C89.8181 368.508 87.7758 368.198 85.7199 368.17C77.3499 367.7 70.3499 367.81 65.3099 367.71C62.7599 367.69 58.8299 367.55 53.9599 367.09Z" fill="#FCEB26"/>
<path d="M62.2099 360.52C64.6099 324.73 66.3699 306.78 67.5999 297C68.6899 288.35 68.9799 279.62 70.1199 271C70.4899 268.24 70.5999 264.76 70.8099 257.81C70.9999 251.58 70.8699 249.87 69.8099 247.95C67.8099 244.38 63.6999 242.28 60.3899 241.71C58.9799 241.47 58.7799 241.71 54.5599 241.53C51.5599 241.43 49.1999 241.23 47.5599 241.07C46.544 238.467 45.8131 235.761 45.3799 233C44.6799 228.61 45.1399 226.6 44.5799 221.81C44.2803 218.689 43.6261 215.613 42.6299 212.64C40.9499 208.26 38.4099 206.72 31.1599 200.49C17.3499 188.61 13.2699 182.78 11.1899 179.34C10.1451 177.635 9.19049 175.875 8.32992 174.07C8.10992 172.25 7.84992 169.56 7.74992 166.27C7.63992 162.37 7.58992 160.4 8.20992 159.27C10.2099 155.59 17.5999 156.17 22.7699 156.4C32.3395 156.829 41.9281 156.474 51.4399 155.34C57.6099 154.08 67.1999 152.07 78.9499 149.34C100.26 144.45 103.35 143.09 111.82 142.39C123.82 141.39 127.59 143.84 146.75 144.99C163.01 145.99 176.38 146.22 185.35 146.29C213.22 156.29 234.9 159.22 248.79 160.12C262.68 161.02 274.08 160.22 278.21 153.39C279.46 151.33 279.56 149.11 279.74 144.68C279.86 141.86 280.15 129.56 272.94 114.68C272.28 113.32 269.94 109.19 265.22 100.93C262.8 96.68 260.78 93.19 259.41 90.84C255.913 83.2535 254.484 74.8769 255.27 66.56L279.66 42.34L289.07 36.07C289.96 35.95 291.31 35.78 292.96 35.61C298.1 35.09 300.96 35.12 302.52 35C306.97 34.67 307.63 32.71 319.87 25.75C323.199 23.76 326.645 21.9734 330.19 20.4C334.284 18.6031 338.563 17.2617 342.95 16.4C347.1 15.59 352.16 15.08 353.58 14.94C354.32 14.87 357.38 14.58 361.37 14.1C366.79 13.45 367.28 13.25 367.85 12.82C369.76 11.39 370.19 9.24004 373.14 7.99004C373.459 7.83308 373.794 7.71233 374.14 7.63004C375.58 7.32004 377.08 7.81005 381.14 8.22005C383.19 8.43005 385.82 8.51004 391.07 8.68004C398.01 8.90004 398.51 8.68005 399.63 9.36005C401.63 10.66 401.53 12.64 403.07 21.06C404.85 30.75 405.55 31.21 405.83 36.27C406.046 39.0145 406.097 41.7695 405.98 44.52C405.74 48.81 405.12 50.6 406.21 53.24C406.86 54.82 407.27 54.63 408.58 57.36C409.72 59.76 409.81 60.76 410.95 61.95C411.925 62.8762 413.103 63.5611 414.39 63.95C417.95 65.39 421.15 66.69 423.48 67.85C426.83 69.51 428.48 70.34 429.48 72.05C430.06 73.05 430.21 73.87 430.28 79.39C430.36 85.18 430.39 88.08 430.28 89.48C430.01 92.87 429.58 94.62 430.63 96.81C431.232 97.9232 432.005 98.9354 432.92 99.81C434.62 101.75 436.22 103.81 437.92 105.66C445.02 113.35 443.49 111.91 449.27 118.04C455.05 124.17 455.57 124.53 459.71 128.94C464.4 133.94 468.09 138.11 470.48 140.86C472.48 140.94 475.53 141.04 479.2 141.09C485.2 141.17 485.68 141.01 487.2 141.32C491.47 142.16 492.8 144.75 498.2 148.2C504.89 152.46 508.2 154.59 510.74 155.53C518 158.27 524.94 157.98 528.47 157.83C540.68 157.31 542.68 157.14 542.68 157.14C546.1 156.86 548.14 156.6 549.56 157.94C550.63 158.94 550.61 160.16 550.71 167.23C550.81 174.3 550.85 174.85 550.48 176.32C549.751 178.966 548.588 181.473 547.04 183.74C544.83 187.27 544.28 186.74 543.21 188.83C541.65 191.83 542.54 193.53 542.57 203.23C542.57 206.46 542.48 205.85 542.45 211.14C542.45 215.08 542.45 218.5 542.53 221.27C539.46 223.7 536.73 225.67 534.53 227.19C530.16 230.19 528.58 230.99 526.97 231.55C524.47 232.42 524.18 232.01 522.84 232.81C519.74 234.65 518.76 238.33 518.02 241.06C517.369 243.527 517.125 246.084 517.3 248.63C514.753 253.17 512.207 257.707 509.66 262.24C511.66 263.85 515.8 267.57 517.22 272.48C517.705 274.323 518.039 276.203 518.22 278.1C518.398 279.697 518.475 281.303 518.45 282.91C518.45 286.16 518.32 301.04 518.57 309.97C518.72 315.35 518.8 319.47 518.97 327.71C519.135 330.255 518.96 332.811 518.45 335.31C517.473 339.497 515.508 343.388 512.72 346.66C509.339 350.736 504.95 353.856 499.99 355.71L449.55 357.17L450.16 322.01L393.16 286.46L391.33 356.63L318.87 355.71C318.97 352.3 319.82 323.48 319.68 311.23C319.68 309.32 319.6 307.29 319.56 302.4C319.45 291.65 319.56 291.45 319.33 289.9C318.128 283.576 314.476 277.984 309.17 274.34C307.17 273.06 303.55 271.16 292.54 270.9C283.231 270.708 273.938 271.764 264.91 274.04L262.31 277.55L264.76 359.03L235.1 359.34L233.58 323.11L219.66 314.34L213.09 358.83L192.91 358.06L187.1 370.6C176.95 370.98 166.1 371.04 154.51 370.6C142.06 370.12 130.41 369.14 119.65 367.85C113.456 364.847 106.547 363.631 99.6999 364.34L93.5499 360.86L62.2099 360.52Z" fill="#0EA85A"/>
<path d="M117.93 355.47H140.17L122.75 179.83H87.89L67.27 355.47H89.43L92.51 313.13H115.69L117.93 355.47ZM93.2 303.47L100.73 199.98H109.73L115.22 303.47H93.2Z" fill="white"/>
<path d="M239.38 355.47H261.63L244.2 179.83H209.35L188.71 355.47H210.88L213.96 313.13H237.14L239.38 355.47ZM214.66 303.47L222.19 199.98H231.13L236.62 303.47H214.66Z" fill="white"/>
<path d="M383.12 258.39C385.79 254.52 386.56 250.88 387.59 245.78C388.68 240.41 388.76 236.97 388.85 223.19C388.96 207.14 388.9 203.67 387.13 198.43C384.85 191.68 381.96 188.57 381.06 187.65C376.82 183.34 371.99 181.89 368.06 180.77C361.57 178.91 357.5 179.26 343.64 179.4C339.74 179.4 333.58 179.47 325.87 179.4V355.04L346.05 355.35V279.14C348.729 279.187 351.402 279.417 354.05 279.83C361.44 280.98 362.79 282.66 363.28 283.44C363.826 284.347 364.123 285.382 364.14 286.44L365.06 355H387.53C387.48 342.12 387.53 331.69 387.65 324.39C387.75 315.79 387.3 307.19 387.53 298.59C387.77 289.65 388.14 286.85 386.63 283.04C383.3 274.68 374.44 270.54 368.44 268.5C371.85 267.52 378.61 264.93 383.12 258.39ZM365.58 228.75C364.86 246.48 364.4 257.75 357.58 261.75C355.98 262.69 353.03 263.8 347.95 262.75C348.11 240.117 348.263 217.49 348.41 194.87C350.41 194.74 352.417 194.78 354.41 194.99C356.232 195.069 358.033 195.406 359.76 195.99C364.35 198.05 364.93 206.52 365.51 216.67C365.8 222.99 365.62 227.77 365.58 228.75Z" fill="white"/>
<path d="M515.54 280.84C514.955 276.261 513.066 271.947 510.1 268.41C507.083 265.052 503.158 262.638 498.8 261.46C503.735 259.177 507.903 255.512 510.8 250.91C512.659 247.716 513.929 244.213 514.55 240.57C515.42 236.67 515.62 233.57 515.27 220.57C514.88 206.23 514.47 204.1 514.01 202.23C512.79 197.29 511.61 192.53 507.47 188.13C503.882 184.478 499.322 181.93 494.33 180.79C492.11 180.21 489.52 180.08 484.43 179.79C478.27 179.5 474.16 179.61 467.12 179.67C463.8 179.67 459 179.72 453.12 179.67V354.9C459.29 355.14 464.4 355.28 468.05 355.35C478.46 355.57 482.23 355.44 485.68 355.19C492.57 354.69 496.08 354.41 499.49 352.78C503.635 350.721 507.174 347.619 509.76 343.78C511.04 341.88 512.6 339.05 514 333.46C515.51 327.46 515.12 325.01 515.49 305.03C515.58 300.03 515.49 295.09 515.64 290.12C515.83 284.77 515.97 283.4 515.54 280.84ZM494.62 332.75C494.731 334.29 494.346 335.825 493.52 337.13C492.87 338.08 491.57 339.38 487.28 340.38C483.54 341.242 479.674 341.421 475.87 340.91V268.91C479.859 268.891 483.82 269.593 487.56 270.98C492.15 272.7 493.08 274.28 493.41 274.98C493.74 275.68 493.81 276.34 493.99 280.26C494.13 283.46 494.21 285.06 494.21 285.53C494.35 299.27 494.42 306.14 494.56 309.15C494.9 317.01 494.4 324.89 494.62 332.75ZM495.62 245.75C495.639 246.921 495.35 248.077 494.78 249.1C494.47 249.63 493.58 250.92 490.5 252.23C488.103 253.168 485.578 253.735 483.01 253.91C480.65 254.182 478.276 254.312 475.9 254.3V193.05C479.431 193.546 482.894 194.445 486.22 195.73C490.62 197.44 493.22 198.49 494.62 201.08C495.62 203.01 495.41 204.6 495.24 208.8C495.24 208.8 495.17 210.34 495.24 220.8C495.27 225.76 495.68 239.07 495.59 245.73L495.62 245.75Z" fill="white"/>
</g>
<defs>
<clipPath id="clip0_310_28">
<rect width="558.65" height="378.59" fill="white"/>
</clipPath>
</defs>
</svg>
