<svg width="544" height="364" viewBox="0 0 544 364" fill="none" xmlns="http://www.w3.org/2000/svg">
<path d="M55.2276 353.526C57.6276 317.736 59.3876 299.786 60.6176 290.006C61.7076 281.356 61.9976 272.626 63.1376 264.006C63.5076 261.246 63.6176 257.766 63.8276 250.816C64.0176 244.586 63.8876 242.876 62.8276 240.956C60.8276 237.386 56.7176 235.286 53.4076 234.716C51.9977 234.476 51.7976 234.716 47.5776 234.536C44.5776 234.436 42.2176 234.236 40.5776 234.076C39.5617 231.473 38.8308 228.767 38.3976 226.006C37.6976 221.616 38.1576 219.606 37.5976 214.816C37.2981 211.695 36.6438 208.619 35.6476 205.646C33.9676 201.266 31.4276 199.726 24.1776 193.496C10.3676 181.616 6.28765 175.786 4.20765 172.346C3.16287 170.64 2.20822 168.881 1.34765 167.076C1.12765 165.256 0.867647 162.566 0.767647 159.276C0.657647 155.376 0.607648 153.406 1.22765 152.276C3.22765 148.596 10.6176 149.176 15.7876 149.406C25.3572 149.834 34.9458 149.48 44.4576 148.346C50.6276 147.086 60.2177 145.076 71.9677 142.346C93.2777 137.456 96.3677 136.096 104.838 135.396C116.838 134.396 120.608 136.846 139.768 137.996C156.028 138.996 169.398 139.226 178.368 139.296C206.238 149.296 227.918 152.226 241.808 153.126C255.698 154.026 267.098 153.226 271.228 146.396C272.478 144.336 272.578 142.116 272.758 137.686C272.878 134.866 273.168 122.566 265.958 107.686C265.298 106.326 262.958 102.196 258.238 93.9359C255.818 89.6859 253.798 86.1959 252.428 83.8459C248.93 76.2593 247.502 67.8827 248.288 59.5659L272.678 35.3459L282.088 29.0759C282.978 28.9559 284.328 28.7859 285.978 28.6159C291.118 28.0959 293.978 28.1259 295.538 28.0059C299.988 27.6759 300.648 25.7159 312.888 18.7559C316.217 16.7659 319.663 14.9793 323.208 13.4059C327.302 11.609 331.581 10.2676 335.968 9.4059C340.118 8.5959 345.178 8.08591 346.598 7.94591C347.338 7.87591 350.398 7.5859 354.388 7.1059C359.808 6.4559 360.298 6.2559 360.868 5.8259C362.778 4.3959 363.208 2.2459 366.158 0.995896C366.477 0.838942 366.812 0.718188 367.158 0.635895C368.598 0.325895 370.098 0.815907 374.158 1.22591C376.208 1.43591 378.838 1.5159 384.088 1.6859C391.028 1.9059 391.528 1.68591 392.648 2.36591C394.648 3.66591 394.548 5.6459 396.088 14.0659C397.868 23.7559 398.568 24.2159 398.848 29.2759C399.064 32.0203 399.114 34.7754 398.998 37.5259C398.758 41.8159 398.138 43.6059 399.228 46.2459C399.878 47.8259 400.288 47.6359 401.598 50.3659C402.738 52.7659 402.828 53.7659 403.968 54.9559C404.942 55.882 406.121 56.567 407.408 56.9559C410.968 58.3959 414.168 59.6959 416.498 60.8559C419.848 62.5159 421.498 63.3459 422.498 65.0559C423.078 66.0559 423.228 66.8759 423.298 72.3959C423.378 78.1859 423.408 81.0859 423.298 82.4859C423.028 85.8759 422.598 87.6259 423.648 89.8159C424.25 90.9291 425.023 91.9413 425.938 92.8159C427.638 94.7559 429.238 96.8159 430.938 98.6659C438.038 106.356 436.508 104.916 442.288 111.046C448.068 117.176 448.588 117.536 452.728 121.946C457.418 126.946 461.108 131.116 463.498 133.866C465.498 133.946 468.548 134.046 472.218 134.096C478.218 134.176 478.698 134.016 480.218 134.326C484.488 135.166 485.818 137.756 491.218 141.206C497.908 145.466 501.218 147.596 503.758 148.536C511.018 151.276 517.958 150.986 521.488 150.836C533.698 150.316 535.698 150.146 535.698 150.146C539.118 149.866 541.158 149.606 542.578 150.946C543.648 151.946 543.628 153.166 543.728 160.236C543.828 167.306 543.868 167.856 543.498 169.326C542.768 171.972 541.606 174.479 540.058 176.746C537.848 180.276 537.298 179.746 536.228 181.836C534.668 184.836 535.558 186.536 535.588 196.236C535.588 199.466 535.498 198.856 535.468 204.146C535.468 208.086 535.468 211.506 535.548 214.276C532.478 216.706 529.748 218.676 527.548 220.196C523.178 223.196 521.598 223.996 519.988 224.556C517.488 225.426 517.198 225.016 515.858 225.816C512.758 227.656 511.778 231.336 511.038 234.066C510.386 236.533 510.143 239.09 510.318 241.636C507.771 246.176 505.224 250.713 502.678 255.246C504.678 256.856 508.818 260.576 510.238 265.486C510.722 267.329 511.057 269.209 511.238 271.106C511.416 272.703 511.492 274.309 511.468 275.916C511.468 279.166 511.338 294.046 511.588 302.976C511.738 308.356 511.818 312.476 511.988 320.716C512.153 323.261 511.978 325.817 511.468 328.316C510.491 332.502 508.526 336.394 505.738 339.666C502.357 343.742 497.968 346.862 493.008 348.716L442.568 350.176L443.178 315.016L386.178 279.466L384.348 349.636L311.888 348.716C311.988 345.306 312.838 316.486 312.698 304.236C312.698 302.326 312.618 300.296 312.578 295.406C312.468 284.656 312.578 284.456 312.348 282.906C311.146 276.582 307.494 270.989 302.188 267.346C300.188 266.066 296.568 264.166 285.558 263.906C276.249 263.714 266.956 264.77 257.928 267.046L255.328 270.556L257.778 352.036L228.118 352.346L226.598 316.116L212.678 307.346L206.108 351.836L185.928 351.066L180.118 363.606C169.968 363.986 159.118 364.046 147.528 363.606C135.078 363.126 123.428 362.146 112.668 360.856C106.474 357.853 99.5647 356.637 92.7177 357.346L86.5676 353.866L55.2276 353.526Z" fill="white"/>
</svg>
